<?xml version="1.0" encoding="UTF-8"?>
<svg width="80px" height="80px" viewBox="0 0 40 40" version="1.1" xmlns="http://www.w3.org/2000/svg" xmlns:xlink="http://www.w3.org/1999/xlink">
    <defs></defs>
    <g id="⚙️-Buttons-&amp;-Inputs" stroke="none" stroke-width="1" fill="none" fill-rule="evenodd">
        <g id="obIcon" fill="#00A0D3">
            <g id="Fill-14">
                <path d="M10.6342994,14.0771094 C12.1583394,14.2796798 13.9871874,14.5497735 14.7322736,14.7523438 C15.4773598,17.0142665 16.1208434,20.1541063 16.1547109,22.4499032 C15.1048167,19.478872 12.6663528,16.0351766 10.6342994,14.0771094 M34.9510912,13.2668282 C26.0777917,9.62056252 24.0118709,15.6639102 23.4022549,16.8454579 C18.5254398,9.28294533 11.7857963,8.03376172 11.6841937,8 C12.497015,9.35046876 13.1404985,10.2957969 14.4274656,13.8070157 C11.3455181,12.9967344 7.51859726,12.7604024 7.51859726,12.7604024 C7.51859726,12.7604024 12.4631474,15.9338914 15.4434923,22.719997 C9.88921323,25.3196494 5.41880883,25.117079 0,25.2858876 C1.21923199,25.8935986 10.8375048,31.5316931 21.4040691,27.5141611 C25.5359108,26.0286455 28.6517259,23.1926611 31.5304681,19.5463954 C33.3593161,17.1155516 34.3753428,15.1912462 39.6585685,13.0304961 C40.1665818,12.8279258 40.1327143,12.2539766 39.387628,12.3890235 C39.387628,12.3552618 36.2040778,12.929211 34.9510912,13.2668282"></path>
            </g>
        </g>
    </g>
</svg>